<svg width="32" height="32" viewBox="0 0 32 32" fill="none" xmlns="http://www.w3.org/2000/svg">
<path d="M27 20.5V26C27 26.5523 26.5523 27 26 27H6C5.44772 27 5 26.5523 5 26V20.5" stroke="url(#paint0_linear_116_1897)" stroke-width="2" stroke-linecap="round" stroke-linejoin="round"/>
<path d="M11.7573 14.7574L15.9999 19L20.2426 14.7574" stroke="url(#paint1_linear_116_1897)" stroke-width="2" stroke-linecap="round" stroke-linejoin="round"/>
<path d="M16 9V19" stroke="url(#paint2_linear_116_1897)" stroke-width="2" stroke-linecap="round" stroke-linejoin="round"/>
<path d="M4.99927 20H9.58505C9.71638 20 9.84641 20.0259 9.96774 20.0761C10.0891 20.1264 10.1993 20.2 10.2922 20.2929L12.7064 22.7071C12.7992 22.8 12.9095 22.8736 13.0308 22.9239C13.1521 22.9741 13.2822 23 13.4135 23H18.5851C18.7164 23 18.8464 22.9741 18.9677 22.9239C19.0891 22.8736 19.1993 22.8 19.2922 22.7071L21.7064 20.2929C21.7992 20.2 21.9095 20.1264 22.0308 20.0761C22.1521 20.0259 22.2822 20 22.4135 20H26.9993" stroke="url(#paint3_linear_116_1897)" stroke-width="2" stroke-linecap="round" stroke-linejoin="round"/>
<defs>
<linearGradient id="paint0_linear_116_1897" x1="5.86699" y1="16.0001" x2="25.2155" y2="16.0535" gradientUnits="userSpaceOnUse">
<stop stop-color="#14CD6C"/>
<stop offset="1" stop-color="#14CD6C"/>
</linearGradient>
<linearGradient id="paint1_linear_116_1897" x1="12.0917" y1="16.8787" x2="19.5541" y2="16.9199" gradientUnits="userSpaceOnUse">
<stop stop-color="#14CD6C"/>
<stop offset="1" stop-color="#14CD6C"/>
</linearGradient>
<linearGradient id="paint2_linear_116_1897" x1="16.0394" y1="14" x2="16.9189" y2="14.0002" gradientUnits="userSpaceOnUse">
<stop stop-color="#14CD6C"/>
<stop offset="1" stop-color="#14CD6C"/>
</linearGradient>
<linearGradient id="paint3_linear_116_1897" x1="5.86626" y1="21.5" x2="25.207" y2="21.8914" gradientUnits="userSpaceOnUse">
<stop stop-color="#14CD6C"/>
<stop offset="1" stop-color="#14CD6C"/>
</linearGradient>
</defs>
</svg>
