<svg width="36" height="36" viewBox="0 0 36 36" fill="none" xmlns="http://www.w3.org/2000/svg">
<path d="M18 18V6" stroke="#14CD6C" stroke-width="2" stroke-linecap="round" stroke-linejoin="round"/>
<path d="M28.3923 12L7.60767 24" stroke="#14CD6C" stroke-width="2" stroke-linecap="round" stroke-linejoin="round"/>
<path d="M6.20011 20.1938C5.68055 17.3821 6.18043 14.4772 7.60999 12.0009C9.03954 9.5246 11.3051 7.63905 13.9998 6.68289V15.6907L6.20011 20.1938Z" stroke="#14CD6C" stroke-width="2" stroke-linecap="round" stroke-linejoin="round"/>
<path d="M18 6C20.1024 6.00039 22.1679 6.55313 23.9895 7.60288C25.811 8.65263 27.3249 10.1625 28.3793 11.9814C29.4338 13.8003 29.9919 15.8643 29.9978 17.9667C30.0036 20.0691 29.457 22.1361 28.4126 23.9608C27.3683 25.7855 25.8629 27.3038 24.0471 28.3637C22.2314 29.4235 20.1691 29.9877 18.0667 29.9998C15.9643 30.0119 13.8956 29.4714 12.0679 28.4324C10.2401 27.3935 8.71733 25.8926 7.6521 24.08" stroke="#14CD6C" stroke-width="2" stroke-linecap="round" stroke-linejoin="round"/>
</svg>
