<svg width="301" height="25" viewBox="0 0 301 25" fill="none" xmlns="http://www.w3.org/2000/svg">
<path d="M13.2142 19H14.9822L8.69022 0.799999H6.63622L0.292219 19H2.08622L3.93222 13.436H11.3422L13.2142 19ZM7.67622 2.256L11.0302 12.266H4.29622L7.67622 2.256ZM30.298 0.799999V8.418H20.106V0.799999H18.442V19H20.106V9.692H30.298V19H31.962V0.799999H30.298ZM48.3041 19H50.0721L43.7801 0.799999H41.7261L35.3821 19H37.1761L39.0221 13.436H46.4321L48.3041 19ZM42.7661 2.256L46.1201 12.266H39.3861L42.7661 2.256ZM55.8199 0.799999C55.8199 11.902 54.8319 17.674 52.3099 17.726C52.0239 17.726 51.7639 17.7 51.5299 17.648L51.8419 19.156C52.1539 19.234 52.4659 19.26 52.7779 19.26C56.8859 19.26 57.1979 8.366 57.2499 2.152H64.4779V19H66.1419V0.799999H55.8199ZM71.5592 0.799999V19H73.1712L84.2992 3.036V19H85.9632V0.799999H84.3252L73.2232 16.764V0.799999H71.5592ZM89.8559 2.256H95.3939V19H97.0579V2.256H102.622V0.799999H89.8559V2.256ZM106.294 0.799999V19H107.906L119.034 3.036V19H120.698V0.799999H119.06L107.958 16.764V0.799999H106.294ZM127.762 0.799999H126.098V19H127.762V9.536H128.074L137.252 19H139.332L129.764 9.12L139.28 0.799999H137.07L128.074 8.912H127.762V0.799999ZM153.193 19H154.961L148.669 0.799999H146.615L140.271 19H142.065L143.911 13.436H151.321L153.193 19ZM147.655 2.256L151.009 12.266H144.275L147.655 2.256ZM167.372 2.074H175.588V0.799999H165.708V19H171.454C176.342 19 177.2 16.348 177.2 13.514C177.2 10.108 175.874 8.028 171.48 8.028H167.372V2.074ZM171.246 9.224C173.872 9.224 175.484 10.16 175.484 13.514C175.484 16.868 173.872 17.804 171.246 17.804H167.372V9.224H171.246ZM187.088 15.594C186.36 17.258 185.762 18.012 184.592 18.012C183.162 18.012 182.044 17.674 181.16 17.284L180.77 18.558C181.42 18.818 183.032 19.26 184.67 19.26C186.88 19.26 187.894 17.674 189.038 14.866L194.498 0.799999H192.834L187.712 14.294H187.634L181.94 0.799999H179.99L186.022 14.476C186.256 15.048 186.828 15.516 187.088 15.594ZM199.482 0.799999C199.482 5.662 199.482 14.19 196.752 17.726H195.374V24.2H196.804L197.038 19H210.35V24.2H211.754L212.014 17.726H209.934V0.799999H199.482ZM208.27 2.126V17.726H198.364C201.042 14.008 200.99 6.442 201.016 2.126H208.27ZM221.873 15.594C221.145 17.258 220.547 18.012 219.377 18.012C217.947 18.012 216.829 17.674 215.945 17.284L215.555 18.558C216.205 18.818 217.817 19.26 219.455 19.26C221.665 19.26 222.679 17.674 223.823 14.866L229.283 0.799999H227.619L222.497 14.294H222.419L216.725 0.799999H214.775L220.807 14.476C221.041 15.048 221.613 15.516 221.873 15.594ZM241.471 0.799999V17.726H234.555V0.799999H232.891V19H252.131V23.992H253.561L253.795 17.726H251.715V0.799999H250.051V17.726H243.135V0.799999H241.471ZM259.946 9.692H267.876V8.496H259.946V2.048H268.994V0.799999H258.282V19H268.994V17.752H259.946V9.692ZM274.622 19V2.204H282.734V0.799999H272.958V19H274.622ZM284.59 12.11C284.59 15.88 287.164 19.26 292.364 19.26C297.564 19.26 300.138 15.88 300.138 12.11V7.716C300.138 3.946 297.538 0.539999 292.364 0.539999C287.19 0.539999 284.59 3.946 284.59 7.716V12.11ZM286.358 7.794C286.358 4.284 288.906 1.814 292.364 1.814C296.212 1.814 298.396 4.492 298.396 7.794V12.006C298.396 15.62 296.212 17.986 292.364 17.986C288.75 17.986 286.358 15.62 286.358 12.006V7.794Z" fill="white"/>
</svg>
