<svg width="301" height="68" viewBox="0 0 301 68" fill="none" xmlns="http://www.w3.org/2000/svg">
<path d="M41.718 61.172C35.044 63.428 30.908 65.12 25.362 65.12C10.322 65.12 4.682 55.814 4.682 42.09V26.11C4.682 10.976 10.416 3.08 25.362 3.08C30.908 3.08 35.044 4.77199 41.718 7.028L42.846 4.114C36.172 1.858 31.472 0.259996 25.362 0.259996C6.938 0.259996 0.64 10.506 0.64 26.11V42.09C0.64 57.694 6.938 67.94 25.362 67.94C31.472 67.94 36.172 66.342 42.846 64.086L41.718 61.172ZM96.0206 67H100.063L76.8446 1.2H72.3326L49.0206 67H53.0626L60.3946 45.568H88.6886L96.0206 67ZM74.5886 4.30199L87.7486 42.748H61.4286L74.5886 4.30199ZM99.8019 4.49H120.482V67H124.242V4.49H144.922V1.2H99.8019V4.49ZM161.268 32.22H191.348V29.4H161.268V4.02H195.108V1.2H157.508V67H195.108V64.18H161.268V32.22ZM227.896 0.259996C216.052 0.259996 205.336 5.43 205.336 16.24C205.336 31.468 223.384 34.194 235.322 38.236C243.782 41.15 246.414 43.5 246.414 51.02C246.414 53.464 246.132 65.12 227.896 65.12C220.094 65.12 212.104 63.522 205.806 60.42L204.866 63.522C211.258 67.094 222.256 67.94 227.896 67.94C239.928 67.94 250.456 62.018 250.456 51.02C250.456 34.288 234.852 35.604 219.53 28.46C213.796 25.828 209.378 22.162 209.378 16.24C209.378 10.224 213.984 3.08 227.896 3.08C236.92 3.08 242.184 5.148 248.012 7.77999L249.046 4.678C242.184 2.046 236.074 0.259996 227.896 0.259996ZM255.03 4.49H275.71V67H279.47V4.49H300.15V1.2H255.03V4.49Z" fill="white"/>
</svg>
