<svg width="31" height="32" viewBox="0 0 31 32" fill="none" xmlns="http://www.w3.org/2000/svg">
<path d="M3.97342 26V8C3.97342 7.73478 4.07405 7.48043 4.25318 7.29289C4.4323 7.10536 4.67525 7 4.92857 7H11.2962C11.5029 7 11.704 7.07018 11.8693 7.2L15.1805 9.8C15.3458 9.92982 15.5469 10 15.7536 10H24.0316C24.2849 10 24.5278 10.1054 24.707 10.2929C24.8861 10.4804 24.9867 10.7348 24.9867 11V14" stroke="#6B0CA6" stroke-width="2" stroke-linecap="round" stroke-linejoin="round"/>
<path d="M3.97342 26L7.57632 14.6838C7.63971 14.4847 7.76134 14.3115 7.92396 14.1888C8.08659 14.066 8.28198 14 8.48245 14H27.4821C27.6335 14 27.7826 14.0377 27.9173 14.1099C28.0521 14.1821 28.1685 14.2867 28.257 14.4153C28.3455 14.5438 28.4035 14.6926 28.4263 14.8492C28.4492 15.0058 28.4361 15.1659 28.3882 15.3162L24.9867 26H3.97342Z" stroke="#6B0CA6" stroke-width="2" stroke-linecap="round" stroke-linejoin="round"/>
</svg>
