<svg width="502" height="630" viewBox="0 0 502 630" fill="none" xmlns="http://www.w3.org/2000/svg">
<rect x="1" y="1" width="501" height="30" rx="15" fill="#FAFEFF"/>
<rect x="1" y="31" width="501" height="30" rx="15" fill="#D7E1E3" fill-opacity="0.3"/>
<rect x="1" y="61" width="501" height="30" rx="15" fill="#FAFEFF"/>
<rect x="1" y="91" width="501" height="30" rx="15" fill="#D7E1E3" fill-opacity="0.3"/>
<rect x="1" y="121" width="501" height="30" rx="15" fill="#FAFEFF"/>
<rect x="1" y="151" width="501" height="30" rx="15" fill="#D7E1E3" fill-opacity="0.3"/>
<rect x="1" y="181" width="501" height="30" rx="15" fill="#FAFEFF"/>
<rect x="1" y="211" width="501" height="30" rx="15" fill="#D7E1E3" fill-opacity="0.3"/>
<rect x="1" y="331" width="501" height="30" rx="15" fill="#D7E1E3" fill-opacity="0.3"/>
<rect x="1" y="451" width="501" height="30" rx="15" fill="#D7E1E3" fill-opacity="0.3"/>
<rect x="1" y="241" width="501" height="30" rx="15" fill="#FAFEFF"/>
<rect x="1" y="361" width="501" height="30" rx="15" fill="#FAFEFF"/>
<rect x="1" y="481" width="501" height="30" rx="15" fill="#FAFEFF"/>
<rect x="1" y="271" width="501" height="30" rx="15" fill="#D7E1E3" fill-opacity="0.3"/>
<rect x="1" y="391" width="501" height="30" rx="15" fill="#D7E1E3" fill-opacity="0.3"/>
<rect x="1" y="511" width="501" height="30" rx="15" fill="#D7E1E3" fill-opacity="0.3"/>
<rect y="570" width="501" height="30" rx="15" fill="#D7E1E3" fill-opacity="0.3"/>
<rect x="1" y="301" width="501" height="30" rx="15" fill="#FAFEFF"/>
<rect x="1" y="421" width="501" height="30" rx="15" fill="#FAFEFF"/>
<rect x="1" y="541" width="501" height="30" rx="15" fill="#FAFEFF"/>
<rect y="600" width="501" height="30" rx="15" fill="#FAFEFF"/>
</svg>
